<svg width="37" height="38" viewBox="0 0 37 38" fill="none" xmlns="http://www.w3.org/2000/svg">
<path d="M2 17.1664C2 10.432 2 7.06389 4.09302 4.97266C6.18603 2.88142 9.55236 2.87964 16.2868 2.87964H19.8585C26.593 2.87964 29.9611 2.87964 32.0523 4.97266C34.1435 7.06567 34.1453 10.432 34.1453 17.1664V20.7381C34.1453 27.4726 34.1453 30.8407 32.0523 32.9319C29.9593 35.0232 26.593 35.025 19.8585 35.025H16.2868C9.55236 35.025 6.18425 35.025 4.09302 32.9319C2.00179 30.8389 2 27.4726 2 20.7381V17.1664Z" stroke="#51924B" stroke-width="4"/>
<path d="M26.109 13.5946C27.5884 13.5946 28.7878 12.3953 28.7878 10.9158C28.7878 9.43639 27.5884 8.23706 26.109 8.23706C24.6295 8.23706 23.4302 9.43639 23.4302 10.9158C23.4302 12.3953 24.6295 13.5946 26.109 13.5946Z" fill="#51924B"/>
<path d="M18.0727 24.3098C21.0316 24.3098 23.4302 21.9112 23.4302 18.9523C23.4302 15.9934 21.0316 13.5947 18.0727 13.5947C15.1138 13.5947 12.7151 15.9934 12.7151 18.9523C12.7151 21.9112 15.1138 24.3098 18.0727 24.3098Z" stroke="#51924B" stroke-width="4"/>
</svg>
