<svg width="24" height="32" viewBox="0 0 24 32" fill="none" xmlns="http://www.w3.org/2000/svg">
<path d="M22.6625 8H19.9937V9.33125C19.9937 10.8 18.8 12 17.325 12C15.8562 12 14.6562 10.8063 14.6562 9.33125V8H9.325V9.33125C9.325 10.8 8.13125 12 6.65625 12C5.1875 12 3.9875 10.8063 3.9875 9.33125V8H1.33125C1.33125 21.3312 0 32 0 32H24C23.9937 32 22.6625 21.3312 22.6625 8ZM6.6625 10.6687C7.4 10.6687 7.99375 10.075 7.99375 9.3375V6.66875C7.99375 4.45625 9.78125 2.66875 11.9937 2.66875C14.2062 2.66875 15.9937 4.45625 15.9937 6.66875V9.3375C15.9937 10.075 16.5875 10.6687 17.325 10.6687C18.0625 10.6687 18.6562 10.075 18.6562 9.3375V6.66875C18.6625 2.9875 15.675 0 11.9937 0C8.3125 0 5.325 2.9875 5.325 6.66875V9.3375C5.33125 10.0687 5.925 10.6687 6.6625 10.6687Z" fill="#51924B"/>
</svg>
