<svg width="37" height="37" viewBox="0 0 37 37" fill="none" xmlns="http://www.w3.org/2000/svg">
<path d="M33.3 18.9524C33.3 22.7715 31.7407 26.4342 28.9652 29.1347C26.1896 31.8353 22.4252 33.3524 18.5 33.3524C14.5748 33.3524 10.8104 31.8353 8.03482 29.1347C5.25928 26.4342 3.7 22.7715 3.7 18.9524C3.7 15.1333 5.25928 11.4706 8.03482 8.77005C10.8104 6.06953 14.5748 4.55239 18.5 4.55239C22.4252 4.55239 26.1896 6.06953 28.9652 8.77005C31.7407 11.4706 33.3 15.1333 33.3 18.9524ZM18.5 36.9524C28.7176 36.9524 37 28.8938 37 18.9524C37 9.01099 28.7176 0.952393 18.5 0.952393C8.28245 0.952393 0 9.01099 0 18.9524C0 28.8938 8.28245 36.9524 18.5 36.9524ZM19.1623 14.24C17.3641 14.9684 13.7683 16.4762 8.37495 18.7634C7.49805 19.1018 7.03925 19.433 6.99855 19.757C6.92825 20.3042 7.6331 20.5202 8.59325 20.8136L8.99655 20.9396C9.94005 21.2384 11.2129 21.5876 11.8733 21.602C12.4727 21.614 13.1412 21.374 13.8787 20.882C18.9181 17.57 21.5192 15.8966 21.682 15.8618C21.7986 15.8366 21.9577 15.8042 22.065 15.8978C22.1741 15.9914 22.163 16.1678 22.1519 16.2164C22.0816 16.5062 19.314 19.01 17.8821 20.3042C17.4578 20.693 17.0366 21.0848 16.6185 21.4796C15.7416 22.3022 15.0831 22.9196 16.6556 23.9276C18.2484 24.95 19.8561 25.9688 21.41 27.047C22.176 27.5798 22.8642 28.055 23.7152 27.9812C24.2091 27.9362 24.7197 27.4844 24.9787 26.1344C25.5929 22.9484 26.7973 16.04 27.0748 13.1924C27.0909 12.9562 27.0803 12.719 27.0433 12.485C27.0214 12.2967 26.9277 12.1232 26.7806 11.999C26.5586 11.8226 26.2164 11.7866 26.0647 11.7884C25.3691 11.801 24.3016 12.161 19.1642 14.24" fill="#51924B"/>
</svg>
