<svg width="29" height="29" viewBox="0 0 29 29" fill="none" xmlns="http://www.w3.org/2000/svg">
<path d="M14.0079 0.0479632C14.3321 -0.0159877 14.6667 -0.0159877 14.9924 0.0479632C15.3657 0.11935 15.7048 0.296331 16.02 0.459926L16.0989 0.501569L28.3977 6.86692C28.5792 6.96097 28.7314 7.10309 28.8376 7.27778C28.9438 7.45246 29 7.65297 29 7.85742V19.6021C29 20.023 29.003 20.4691 28.8617 20.8841C28.7374 21.2455 28.537 21.5762 28.2743 21.8538C27.9694 22.172 27.5708 22.3758 27.199 22.5676L27.1053 22.6167L15.0132 28.875C14.8547 28.9571 14.6787 29 14.5001 29C14.3216 29 14.1456 28.9571 13.9871 28.875L1.89495 22.6167L1.80126 22.5676C1.42947 22.3758 1.03091 22.172 0.726039 21.8538C0.463249 21.5762 0.262948 21.2455 0.13861 20.8841C-0.00267086 20.4677 -0.00118359 20.0215 0.000303569 19.6006V7.85742C0.000286993 7.65297 0.0564575 7.45246 0.162678 7.27778C0.268899 7.10309 0.421083 6.96097 0.602605 6.86692L12.9 0.501569L12.9788 0.461414C13.2955 0.296331 13.6331 0.11935 14.0079 0.0479632ZM14.344 2.27286C14.2026 2.3396 14.0628 2.40952 13.9246 2.48256L3.59627 7.82916L7.80048 9.88749L18.7401 4.38027L15.0742 2.48256C14.936 2.40952 14.7962 2.3396 14.6548 2.27286L14.5686 2.23717M21.1864 5.6459L10.3153 11.1189L14.5001 13.1653L25.404 7.82916L21.1864 5.6459ZM13.3848 26.0507V15.1047L8.92329 12.92V14.4072C8.92329 14.703 8.80577 14.9867 8.5966 15.1959C8.38743 15.4051 8.10373 15.5226 7.80791 15.5226C7.5121 15.5226 7.2284 15.4051 7.01923 15.1959C6.81005 14.9867 6.69254 14.703 6.69254 14.4072V11.8283L2.23105 9.64507V19.4965C2.23105 19.7746 2.23105 19.9337 2.23849 20.0542L2.25187 20.1702C2.27111 20.2222 2.29986 20.2701 2.33664 20.3115C2.34407 20.3174 2.36787 20.3368 2.43182 20.374C2.53294 20.4364 2.67422 20.5078 2.91961 20.6357L13.3848 26.0507Z" fill="#51924B"/>
</svg>
