<svg width="33" height="35" viewBox="0 0 33 35" fill="none" xmlns="http://www.w3.org/2000/svg">
<path d="M15.6309 0C12.837 0.0408341 6.83451 0.501677 3.48094 3.59778C0.990056 6.10616 0.11143 9.77103 0.020088 14.3167C-0.0712542 18.8625 -0.190144 27.3822 7.97556 29.6923H7.97991L7.97411 33.2157C7.97411 33.2157 7.92047 34.6405 8.85854 34.9322C9.98509 35.2851 10.6477 34.203 11.7293 33.0334C12.3194 32.3917 13.1386 31.4525 13.7548 30.7292C19.3368 31.2046 23.6313 30.1225 24.1214 29.9635C25.2465 29.596 31.626 28.7735 32.6641 20.2552C33.737 11.4759 32.1421 5.91949 29.2714 3.41694C28.4072 2.61484 24.913 0.0627096 17.1286 0.0291672C17.1286 0.0291672 16.5559 -0.00729181 15.6251 0.00437509L15.6309 0ZM15.715 2.46901C16.5052 2.46317 16.9909 2.4938 16.9909 2.4938C23.5762 2.52297 26.7297 4.51801 27.4619 5.18594C29.8904 7.27869 31.1301 12.2852 30.2254 19.6193V19.6223C29.3496 26.7362 24.1736 27.1824 23.2196 27.4901C22.8136 27.6214 19.041 28.5649 14.2985 28.2543C14.2985 28.2543 10.7666 32.5419 9.66322 33.6561C9.48923 33.8311 9.28625 33.8996 9.15286 33.8661C8.96438 33.818 8.91218 33.5919 8.91363 33.2623L8.94263 27.4026C2.03832 25.4776 2.43993 18.2266 2.51968 14.4305C2.59797 10.6329 3.30696 7.52077 5.41363 5.42802C8.25539 2.84235 13.3503 2.48505 15.7223 2.46755L15.715 2.46901ZM16.266 6.26367C16.1535 6.26937 16.0476 6.31811 15.9697 6.3999C15.8919 6.48168 15.8481 6.59032 15.8474 6.70352C15.8467 6.81673 15.889 6.92594 15.9658 7.00875C16.0425 7.09156 16.1478 7.1417 16.2602 7.14889C18.6148 7.16348 20.5315 7.93203 22.1003 9.4706C23.656 10.9961 24.4491 13.0698 24.4679 15.7911C24.4708 16.0347 24.6709 16.2287 24.913 16.2287C25.0289 16.2271 25.1395 16.1797 25.2209 16.0968C25.3024 16.0138 25.348 15.9019 25.348 15.7853C25.3277 12.8919 24.452 10.541 22.715 8.83768C20.9897 7.14598 18.8105 6.28117 16.266 6.26367ZM10.5244 7.27723C10.2162 7.23419 9.90242 7.29413 9.63132 7.44786L9.61682 7.45077C8.99338 7.81099 8.43372 8.27037 7.95526 8.80997L7.94367 8.82163C7.55703 9.2922 7.33472 9.75304 7.27672 10.2042C7.26542 10.2716 7.26201 10.3401 7.26657 10.4083C7.26657 10.6076 7.29799 10.8021 7.36081 10.9917L7.37966 11.0063C7.5754 11.7063 8.06545 12.8671 9.12676 14.8038C9.73571 15.9239 10.436 16.9914 11.2233 17.9918C11.6148 18.4945 12.0352 18.9728 12.4847 19.4268L12.6761 19.6193C13.1265 20.0695 13.602 20.4924 14.1027 20.8881C15.0981 21.6803 16.1583 22.3862 17.2722 22.9984C19.1976 24.0674 20.3546 24.5588 21.0476 24.7572L21.0621 24.7776C21.3146 24.8594 21.5814 24.8868 21.8451 24.8578C22.2955 24.8043 22.7537 24.5807 23.2196 24.1869C23.2254 24.1869 23.2239 24.184 23.2312 24.1796C23.7676 23.6984 24.2214 23.1296 24.5796 22.5054L24.5839 22.4909C24.9101 21.8609 24.8014 21.2629 24.3229 20.8575C24.3171 20.8575 23.3109 20.0116 22.8194 19.6471C22.2974 19.2747 21.7595 18.9295 21.2057 18.6116C20.4662 18.196 19.7094 18.457 19.3962 18.8654L18.7481 19.6879C18.4147 20.1006 17.7956 20.0466 17.7956 20.0466C13.272 18.8858 12.0613 14.2788 12.0613 14.2788C12.0613 14.2788 12.0077 13.6576 12.4209 13.3221L13.2372 12.6688C13.6388 12.3552 13.8983 11.594 13.4836 10.8488C13.1681 10.2895 12.8246 9.7468 12.4542 9.22268C12.065 8.71006 11.6638 8.20678 11.2508 7.71328C11.0692 7.48406 10.8102 7.32992 10.523 7.28015L10.5244 7.27723ZM17.0344 8.56059C16.9179 8.55711 16.8048 8.60032 16.7199 8.68073C16.6351 8.76114 16.5855 8.87215 16.582 8.98935C16.5786 9.10654 16.6215 9.22032 16.7015 9.30565C16.7814 9.39098 16.8918 9.44087 17.0083 9.44435C18.6902 9.56832 19.9327 10.124 20.8432 11.1215C21.7566 12.1248 22.1916 13.344 22.1568 14.8695C22.1631 14.9816 22.2113 15.0872 22.2916 15.1653C22.372 15.2433 22.4786 15.2879 22.5903 15.2903C22.702 15.2927 22.8104 15.2527 22.894 15.1782C22.9776 15.1037 23.0302 15.0002 23.0412 14.8884C23.0775 13.1748 22.557 11.6902 21.4942 10.5221C20.4213 9.34081 18.9178 8.69476 17.0721 8.55913H17.0373L17.0344 8.56059ZM17.7057 10.9377C17.594 10.9394 17.4872 10.9834 17.4065 11.0611C17.3258 11.1387 17.2773 11.2442 17.2707 11.3563C17.2591 11.5998 17.4447 11.8084 17.6883 11.8229C18.4466 11.8638 18.9569 12.0782 19.302 12.4384C19.65 12.7957 19.8645 13.3426 19.9051 14.1359C19.9201 14.2459 19.9755 14.3462 20.0604 14.4171C20.1453 14.4879 20.2535 14.5242 20.3637 14.5187C20.4739 14.5132 20.578 14.4664 20.6555 14.3874C20.733 14.3084 20.7783 14.2031 20.7823 14.0922C20.7388 13.153 20.4706 12.3742 19.9414 11.8215C19.4093 11.2702 18.6467 10.9844 17.7376 10.9363H17.7115L17.7057 10.9377Z" fill="#51924B"/>
</svg>
