<svg width="32" height="29" viewBox="0 0 32 29" fill="none" xmlns="http://www.w3.org/2000/svg">
<path fill-rule="evenodd" clip-rule="evenodd" d="M28.1124 1.20594C28.1965 1.60157 28.1209 2.01457 27.9023 2.3542C27.6837 2.69383 27.3399 2.9323 26.9465 3.01723L17.5201 5.04831V25.9473H22.5804C22.9831 25.9473 23.3692 26.1081 23.6539 26.3943C23.9386 26.6806 24.0985 27.0688 24.0985 27.4736C24.0985 27.8785 23.9386 28.2667 23.6539 28.5529C23.3692 28.8392 22.9831 29 22.5804 29H9.4236C9.02098 29 8.63484 28.8392 8.35015 28.5529C8.06545 28.2667 7.90551 27.8785 7.90551 27.4736C7.90551 27.0688 8.06545 26.6806 8.35015 26.3943C8.63484 26.1081 9.02098 25.9473 9.4236 25.9473H14.4839V5.70363L5.69313 7.59632C5.49569 7.64545 5.29044 7.65419 5.08958 7.62201C4.88871 7.58984 4.69633 7.5174 4.52384 7.40902C4.35136 7.30063 4.2023 7.1585 4.08551 6.99107C3.96873 6.82363 3.8866 6.63431 3.844 6.43434C3.8014 6.23437 3.7992 6.02783 3.83753 5.82699C3.87587 5.62614 3.95395 5.4351 4.06715 5.26519C4.18035 5.09528 4.32635 4.94997 4.49649 4.8379C4.66662 4.72583 4.85742 4.64928 5.05756 4.61279L26.3109 0.0336981C26.7044 -0.050833 27.1152 0.025152 27.4529 0.244957C27.7907 0.464763 28.0279 0.810407 28.1124 1.20594ZM23.3759 14.8923L23.3901 14.929C23.6085 15.4781 23.9856 15.9488 24.4727 16.2803C24.9598 16.6119 25.5345 16.7891 26.1227 16.7891C26.7109 16.7891 27.2856 16.6119 27.7726 16.2803C28.2597 15.9488 28.6368 15.4781 28.8552 14.929L28.8694 14.8923L26.1227 9.36893L23.3759 14.8923ZM26.1227 5.59577C25.1916 5.59577 24.3414 6.1249 23.9265 6.95932L20.4551 13.9378C20.3272 14.195 20.2549 14.4765 20.243 14.7638C20.2312 15.0511 20.28 15.3377 20.3863 15.6046L20.5685 16.0646C21.0121 17.1805 21.7782 18.1372 22.7679 18.811C23.7575 19.4849 24.9254 19.8451 26.1206 19.8451C27.3159 19.8451 28.4838 19.4849 29.4734 18.811C30.4631 18.1372 31.2292 17.1805 31.6728 16.0646L31.855 15.6046C31.9613 15.3377 32.0101 15.0511 31.9983 14.7638C31.9864 14.4765 31.9141 14.195 31.7862 13.9378L28.3168 6.96339C28.114 6.55262 27.8012 6.20695 27.4135 5.96532C27.0258 5.72368 26.5788 5.5957 26.1227 5.59577ZM3.13463 18.9626L3.1488 18.9993C3.36726 19.5484 3.74434 20.0191 4.23141 20.3506C4.71848 20.6822 5.29318 20.8594 5.88138 20.8594C6.46957 20.8594 7.04428 20.6822 7.53134 20.3506C8.01841 20.0191 8.3955 19.5484 8.61395 18.9993L8.62812 18.9626L5.88138 13.4392L3.13463 18.9626ZM5.88138 9.66607C4.95028 9.66607 4.10014 10.1952 3.6852 11.0296L0.213816 18.0082C0.0858831 18.2653 0.0136044 18.5468 0.00174207 18.8341C-0.0101202 19.1214 0.0387032 19.408 0.144995 19.6749L0.327167 20.1349C0.770796 21.2508 1.53689 22.2075 2.52657 22.8813C3.51624 23.5552 4.68408 23.9154 5.87935 23.9154C7.07462 23.9154 8.24246 23.5552 9.23214 22.8813C10.2218 22.2075 10.9879 21.2508 11.4315 20.1349L11.6137 19.6749C11.72 19.408 11.7688 19.1214 11.757 18.8341C11.7451 18.5468 11.6728 18.2653 11.5449 18.0082L8.07756 11.0317C7.87432 10.621 7.56103 10.2755 7.173 10.0342C6.78497 9.79294 6.33762 9.66543 5.88138 9.66607Z" fill="#51924B"/>
</svg>
