<svg width="37" height="40" viewBox="0 0 37 40" fill="none" xmlns="http://www.w3.org/2000/svg">
<path fill-rule="evenodd" clip-rule="evenodd" d="M3.65862 18.2931C3.65888 15.4768 4.47177 12.7204 5.99974 10.3546C7.52772 7.98881 9.70587 6.11418 12.2728 4.95562C14.8398 3.79706 17.6866 3.4038 20.4715 3.82302C23.2564 4.24224 25.8612 5.45614 27.9734 7.31905C30.0855 9.18196 31.6153 11.6148 32.3791 14.3255C33.1429 17.0363 33.1083 19.9098 32.2794 22.6014C31.4506 25.293 29.8627 27.6882 27.7063 29.4998C25.5499 31.3113 22.9166 32.4621 20.1224 32.8141V21.9517H23.781C24.2662 21.9517 24.7315 21.759 25.0745 21.4159C25.4176 21.0728 25.6103 20.6075 25.6103 20.1224C25.6103 19.6372 25.4176 19.1719 25.0745 18.8289C24.7315 18.4858 24.2662 18.2931 23.781 18.2931H20.1224V14.6345C20.1224 14.1493 20.3151 13.684 20.6582 13.3409C21.0012 12.9979 21.4665 12.8052 21.9517 12.8052H22.8663C23.3515 12.8052 23.8168 12.6124 24.1599 12.2694C24.5029 11.9263 24.6957 11.461 24.6957 10.9758C24.6957 10.4907 24.5029 10.0254 24.1599 9.68233C23.8168 9.33927 23.3515 9.14654 22.8663 9.14654H21.9517C20.4962 9.14654 19.1003 9.72473 18.0711 10.7539C17.042 11.7831 16.4638 13.179 16.4638 14.6345V18.2931H12.8052C12.32 18.2931 11.8547 18.4858 11.5116 18.8289C11.1686 19.1719 10.9758 19.6372 10.9758 20.1224C10.9758 20.6075 11.1686 21.0728 11.5116 21.4159C11.8547 21.759 12.32 21.9517 12.8052 21.9517H16.4638V32.8141C12.927 32.3685 9.6745 30.6474 7.31678 27.9737C4.95907 25.3001 3.65828 21.8578 3.65862 18.2931ZM18.2931 36.5862C28.3963 36.5862 36.5862 28.3963 36.5862 18.2931C36.5862 8.18981 28.3963 0 18.2931 0C8.18981 0 0 8.18981 0 18.2931C0 28.3963 8.18981 36.5862 18.2931 36.5862Z" fill="#51924B"/>
</svg>
