<svg width="25" height="29" viewBox="0 0 25 29" fill="none" xmlns="http://www.w3.org/2000/svg">
<path d="M13.2353 29L12.8676 24.65H12.5C9.01961 24.65 6.06618 23.4538 3.63971 21.0613C1.21324 18.6688 0 15.7567 0 12.325C0 8.89333 1.21324 5.98125 3.63971 3.58875C6.06618 1.19625 9.01961 0 12.5 0C14.2402 0 15.8642 0.319967 17.3721 0.9599C18.8799 1.59983 20.2034 2.48192 21.3426 3.60615C22.4819 4.73038 23.376 6.03538 24.025 7.52115C24.674 9.00692 24.999 10.6082 25 12.325C25 14.1375 24.7 15.8775 24.1 17.545C23.5 19.2125 22.6784 20.7592 21.6353 22.185C20.5922 23.6108 19.3544 24.9038 17.9221 26.0638C16.4897 27.2238 14.9275 28.2025 13.2353 29ZM12.4632 20.2638C12.8799 20.2638 13.2353 20.1188 13.5294 19.8288C13.8235 19.5388 13.9706 19.1883 13.9706 18.7775C13.9706 18.3667 13.8235 18.0163 13.5294 17.7263C13.2353 17.4363 12.8799 17.2913 12.4632 17.2913C12.0466 17.2913 11.6912 17.4363 11.3971 17.7263C11.1029 18.0163 10.9559 18.3667 10.9559 18.7775C10.9559 19.1883 11.1029 19.5388 11.3971 19.8288C11.6912 20.1188 12.0466 20.2638 12.4632 20.2638ZM11.3971 15.66H13.6029C13.6029 14.935 13.6765 14.4275 13.8235 14.1375C13.9706 13.8475 14.4363 13.3158 15.2206 12.5425C15.6618 12.1075 16.0294 11.6363 16.3235 11.1288C16.6176 10.6213 16.7647 10.0775 16.7647 9.4975C16.7647 8.265 16.3422 7.34038 15.4971 6.72365C14.652 6.10692 13.6529 5.79903 12.5 5.8C11.4216 5.8 10.5147 6.09628 9.77941 6.68885C9.04412 7.28142 8.52941 8.00013 8.23529 8.845L10.2941 9.6425C10.4167 9.23167 10.6495 8.82712 10.9926 8.42885C11.3358 8.03058 11.8382 7.83097 12.5 7.83C13.1618 7.82903 13.6583 8.01028 13.9897 8.37375C14.3211 8.73722 14.4863 9.13597 14.4853 9.57C14.4853 9.98083 14.3627 10.3496 14.1176 10.6764C13.8725 11.0031 13.5784 11.3351 13.2353 11.6725C12.3775 12.3975 11.8569 12.9717 11.6735 13.3951C11.4902 13.8185 11.398 14.5735 11.3971 15.66Z" fill="#51924B"/>
</svg>
