<svg width="140" height="64" viewBox="0 0 140 64" fill="none" xmlns="http://www.w3.org/2000/svg">
<path d="M31.3533 42.9885C32.664 38.4824 34.6291 37.4071 39.139 36.458C39.1084 36.5154 39.0586 36.6053 38.9993 36.7144C37.5394 39.4009 36.8084 40.7441 35.9053 41.5248C35.3638 41.9935 34.344 42.6671 32.5224 42.8584" fill="url(#paint0_linear_2061_2)"/>
<path d="M21.1069 36.0142C24.2488 37.9544 27.3581 39.7358 28.9309 43.333C24.5205 43.8649 22.2282 40.4016 21.1069 36.0142Z" fill="url(#paint1_linear_2061_2)"/>
<path d="M30.5918 36.7602C30.72 36.4656 30.9056 36.0427 31.1429 35.5376C31.7341 34.2728 32.4689 32.8511 32.9683 32.0302C33.5213 31.1195 34.6808 29.4758 36.9846 27.6045C36.0738 29.2041 36.4029 30.9013 36.1159 33.1477C35.8537 36.6856 29.0324 42.799 30.5918 36.7602Z" fill="url(#paint2_linear_2061_2)"/>
<path d="M29.0114 37.2775C28.8794 37.0039 28.6861 36.6116 28.4412 36.1447C27.8308 34.9737 27.075 33.6573 26.5622 32.8977C25.9958 32.0557 24.8114 30.5403 22.4771 28.8354C23.4108 30.3145 23.1104 31.9103 23.4318 34.0074C23.7495 37.3158 30.6627 42.901 29.0095 37.2794L29.0114 37.2775Z" fill="url(#paint3_linear_2061_2)"/>
<path d="M33.2725 30.6893C33.2304 30.785 31.5446 34.1488 31.5733 33.9651C31.4949 34.0818 31.3858 34.2464 31.2576 34.4473C31.2576 34.4473 31.1218 34.6578 31.007 34.8434C30.5267 35.6183 30.2913 36.0087 30.1497 36.5004C30.0923 36.7013 30.0675 36.8678 30.0311 37.1625C30.0369 37.3519 30.0464 37.5471 30.0598 37.7518C30.1249 38.7257 30.255 39.3246 30.3736 40.0096C30.5879 41.2553 30.5803 41.7126 30.8635 47.1008C30.961 48.953 30.8979 50.8167 31.0988 52.6612C31.1103 52.7626 31.3169 54.6665 30.8635 56.8516C30.718 57.5557 30.4961 58.3192 29.8838 58.5737C29.5949 58.6942 29.1949 58.7095 28.9041 58.5354C28.1311 58.0666 28.3683 56.3694 28.5138 55.3247C29.193 50.3957 29.5336 47.9331 29.6102 46.3565C29.6752 45.0171 29.6523 43.6547 29.6102 41.1883C29.5929 40.1531 29.5623 39.2844 29.5279 38.2244C29.4954 37.26 29.482 37.084 29.4705 36.9443C29.4475 36.6631 29.4246 36.4602 29.4054 36.2995C29.2064 35.8747 28.8678 35.4748 28.7912 35.3868C26.0301 32.4899 25.8158 28.6994 28.2956 24.9567C28.6152 24.4305 29.9718 22.1956 30.3258 22.3602C30.521 22.452 30.1555 23.1562 30.3736 24.178C31.0969 26.365 33.8733 28.642 33.2763 30.6913L33.2725 30.6893Z" fill="url(#paint4_linear_2061_2)"/>
<path d="M30.6626 57.4752C29.5682 58.0894 28.311 58.1143 27.2434 57.6589C27.9571 58.8739 28.6899 60.3377 29.306 62.0139C29.5777 61.1031 29.9202 60.1636 30.3259 59.2796C30.5612 58.7668 31.0472 57.7718 31.826 56.6678C31.4663 56.9701 31.0798 57.2418 30.6626 57.4752ZM30.5019 3C13.6561 3 0 16.6561 0 33.5019C0 50.3477 12.5157 62.8328 28.3627 63.9311C28.267 63.7264 28.1809 63.5006 28.091 63.2327C27.892 62.651 27.7542 62.2186 27.7389 62.165C26.7899 58.9275 23.6519 54.9973 23.6519 54.9973C22.1976 53.1758 21.4017 52.5883 16.5358 48.2142C14.3316 46.2319 12.5693 44.6208 11.4978 43.6373C12.952 44.7242 15.0376 46.2912 17.5365 48.2028C21.4265 51.1762 23.3878 52.6821 24.2546 53.5623C24.2546 53.5623 24.4325 53.744 24.7291 54.0904C24.6181 53.4494 24.576 52.7931 24.5091 52.1272C24.3388 51.0767 24.0288 50.0588 23.7341 49.037C23.4318 47.9808 23.1965 46.9208 23.0529 45.8378C20.3971 44.2305 18.3019 41.7909 17.1309 38.8786C16.1952 39.29 15.1849 39.688 14.2378 40.0133C10.3976 41.3316 5.83977 42.0664 5.63504 41.4254C5.43796 40.8093 9.28777 38.9169 12.6401 37.8224C13.901 37.411 15.2481 37.0609 16.4746 36.8083C16.377 36.395 16.2986 35.9741 16.2373 35.5493C12.5559 36.1884 8.37315 36.2496 8.266 35.622C8.15885 35.002 12.045 33.7392 15.1773 33.1211C15.4834 33.0618 15.7934 33.0044 16.1053 32.9528C16.1225 32.4744 16.1646 31.9999 16.2278 31.533C14.7716 31.908 12.5081 32.2295 10.5583 32.3481C6.50565 32.5969 1.91725 32.0879 1.89046 31.4163C1.86368 30.7676 6.08087 29.9716 9.60157 29.8109C12.133 29.6961 14.9018 29.8817 16.4708 30.2127C16.7195 29.1489 17.085 28.1309 17.5557 27.1723C15.9714 27.0154 13.6791 26.5485 11.6872 25.9515C8.05169 24.8628 4.13874 22.957 4.33008 22.3371C4.51568 21.7363 8.5511 22.3734 11.6221 23.2421C14.144 23.9558 16.7712 25.0388 18.2656 25.8903C18.3899 25.6894 18.522 25.4885 18.6559 25.2933C18.4626 25.1651 18.2713 25.035 18.0857 24.9049C14.9726 22.7351 11.8498 19.7023 12.2249 19.1742C12.5903 18.6614 16.2239 20.5251 18.8702 22.3084C19.3505 22.6317 19.8288 22.9742 20.2976 23.3244C20.5425 23.0776 20.7951 22.8403 21.0592 22.6126C19.7159 21.7956 17.6571 20.1271 16.0058 18.4911C13.3098 15.8199 10.7496 12.2992 11.2108 11.8419C11.6585 11.398 14.9209 13.8568 17.2227 16.0668C19.2529 18.0166 21.1893 20.3988 22.0293 21.8377C22.3507 21.6023 22.6837 21.3823 23.0262 21.1737C22.9611 21.0838 22.896 20.9919 22.8329 20.902C20.6497 17.7984 18.7516 13.8816 19.2854 13.5124C19.804 13.1545 22.5803 16.1491 24.4574 18.7322C24.7655 19.1551 25.0659 19.5913 25.3567 20.0333C25.6189 19.9319 25.8848 19.8401 26.1546 19.7559C25.1711 18.5791 23.7265 16.1701 22.6951 13.9544C21.0917 10.514 19.913 6.32553 20.5024 6.05574C21.0764 5.79551 23.2826 9.23203 24.6774 12.1041C25.9786 14.7867 27.0137 17.8922 27.228 19.4631C27.8729 19.3139 28.533 19.2086 29.2084 19.1474C28.7167 17.7315 28.2479 14.8556 28.1082 12.3337C27.9016 8.54511 28.3646 4.21694 29.0133 4.18632C29.6409 4.15762 30.412 8.17008 30.6359 11.3521C30.8444 14.3007 30.6531 17.5363 30.2761 19.0919C30.3488 19.0919 30.4235 19.0919 30.4962 19.0919C31.0817 19.0919 31.6595 19.1263 32.2278 19.1952C32.4555 17.6817 33.3108 14.9914 34.2943 12.7412C35.8136 9.26455 38.1767 5.608 38.7698 5.87397C39.3439 6.13036 38.2264 10.0605 36.9942 13.0053C35.9533 15.4947 34.5067 18.0472 33.4735 19.4C33.6973 19.4478 33.9193 19.4995 34.1393 19.5569C34.1853 19.4956 34.2312 19.4325 34.2771 19.3713C36.5636 16.3423 39.7093 13.3344 40.224 13.7305C40.7234 14.1132 38.7239 17.676 36.8411 20.2534C36.7856 20.3299 36.7301 20.4045 36.6746 20.4791C36.9234 20.5978 37.1664 20.7221 37.4075 20.8542C38.3278 19.5683 39.7801 17.8922 41.2018 16.5126C43.9265 13.8702 47.497 11.3808 47.9447 11.8515C48.3791 12.3069 45.8572 15.5195 43.6012 17.7774C42.0628 19.3177 40.2661 20.7968 38.8598 21.763C39.2731 22.0596 39.6691 22.3753 40.0499 22.7102C43.0597 20.4657 46.8139 18.5026 47.1946 19.0173C47.5697 19.5224 44.6651 22.3983 42.147 24.3557C42.0418 24.438 41.9385 24.5184 41.8313 24.5987C42.0399 24.8628 42.2389 25.1364 42.4283 25.4139C43.7466 24.7403 45.4305 24.0209 47.0071 23.4813C50.5967 22.251 54.8885 21.5239 55.0933 22.14C55.2923 22.737 51.6395 24.5681 48.6374 25.6473C46.8847 26.2787 44.9808 26.7877 43.4099 27.0919C43.8595 27.9951 44.2154 28.9518 44.468 29.9506C45.882 29.809 47.5812 29.7459 49.1368 29.7956C52.9292 29.9162 57.2019 30.7542 57.1751 31.4029C57.1502 32.0305 53.0861 32.4514 49.8945 32.3979C48.1609 32.3692 46.3413 32.197 44.8277 31.954C44.8641 32.2926 44.887 32.6332 44.8985 32.9795C48.0098 33.8999 50.8569 35.1838 50.7249 35.7177C50.5948 36.2419 47.5888 36.0142 44.7703 35.4995C44.711 35.9205 44.6345 36.3357 44.5407 36.7452C45.2736 36.9384 46.0121 37.1546 46.7125 37.3881C50.3135 38.5821 54.171 40.6007 53.9605 41.2149C53.7577 41.81 49.7414 41.0561 46.6972 40.0994C45.7213 39.7933 44.734 39.4297 43.8021 39.047C42.7383 41.5957 40.9626 43.7732 38.7239 45.3326C38.7411 46.0482 38.5804 46.8155 38.213 47.3628C37.5529 48.3444 36.7933 49.2551 36.1503 50.2482C35.7103 50.9294 35.3582 51.668 34.9812 52.3855C34.6273 53.059 34.2446 53.7364 33.8141 54.3774C34.1355 54.0808 34.3938 53.8684 34.4704 53.8072C35.871 52.6668 37.1281 52.0832 37.6581 51.8364C39.4338 51.0078 41.1559 50.0683 42.92 49.215C47.5658 46.9686 49.7854 45.2523 49.9174 45.4417C50.059 45.6445 47.6998 47.8832 44.6192 49.5747C43.9533 49.9402 42.7708 50.518 40.4039 51.6737C39.1104 52.3071 38.4713 52.6075 37.528 53.1566C36.4048 53.8091 35.4979 54.3353 34.6751 55.0433C32.5435 56.8744 31.7265 59.2681 31.0205 61.3365C30.6205 62.5075 30.3335 63.3513 30.1747 63.9981C30.1575 63.9981 30.1384 64 30.1211 64.0019C30.1173 64.0019 30.1135 64.0019 30.1097 64.0019C30.2398 64.0019 30.368 64.0038 30.4981 64.0038C47.3439 64.0038 61 50.3477 61 33.5C61 16.6523 47.3496 3 30.5019 3ZM30.6607 57.4752C29.5663 58.0894 28.3091 58.1143 27.2414 57.6589C27.9551 58.8739 28.688 60.3377 29.3041 62.0139C29.5758 61.1031 29.9183 60.1636 30.324 59.2796C30.5593 58.7668 31.0453 57.7718 31.8241 56.6678C31.4644 56.9701 31.0779 57.2418 30.6607 57.4752Z" fill="url(#paint5_radial_2061_2)"/>
<path d="M60.3017 40.0286C57.2536 53.7498 45.0651 64.0057 30.4943 64.0057C30.4446 64.0057 30.3948 64.0057 30.3432 64.0057C30.2724 64.0057 30.1997 64.0057 30.1289 64.0038C30.1461 64.0038 30.1652 64.0019 30.1825 64C30.3413 63.3533 30.6283 62.5094 31.0282 61.3384C31.7342 59.27 32.5513 56.8763 34.6828 55.0452C35.5056 54.3391 36.4126 53.811 37.5357 53.1585C38.4791 52.6094 39.1181 52.309 40.4116 51.6756C42.7766 50.518 43.9591 49.9402 44.6269 49.5766C47.7075 47.887 50.0649 45.6483 49.9252 45.4436C49.7951 45.2542 47.5736 46.9686 42.9278 49.2169C41.1636 50.0703 39.4415 51.0098 37.6659 51.8383C37.1358 52.087 35.8787 52.6687 34.4781 53.8091C34.3709 53.8952 33.9213 54.2664 33.4314 54.7524C31.6807 56.4955 30.6972 58.4759 30.3298 59.2777C29.9241 60.1598 29.5816 61.1012 29.3099 62.012C27.3582 56.7118 24.2585 53.5623 24.2585 53.5623C23.3917 52.6821 21.4304 51.1781 17.5405 48.2028C15.0415 46.2912 12.9559 44.7242 11.5017 43.6373C12.5732 44.6208 14.3355 46.2319 16.5397 48.2142C21.4056 52.5902 22.2016 53.1758 23.6558 54.9973C23.6558 54.9973 26.7938 58.9294 27.7428 62.165C27.7581 62.2186 27.8959 62.651 28.0949 63.2327C28.1868 63.5006 28.2709 63.7264 28.3666 63.9311C14.7794 62.9897 3.63559 53.1184 0.709961 40.1147C1.93647 40.0458 3.09792 40.021 4.16752 39.9999C9.57295 39.887 15.87 39.7359 21.817 44.0889C22.3929 44.5118 27.3888 48.2755 29.7404 53.9717C31.7916 48.4745 36.3666 44.7892 36.8469 44.4123C42.482 39.998 48.8001 39.9789 55.5028 39.9597C57.1713 39.954 58.7595 39.9502 60.3055 40.0286H60.3017Z" fill="url(#paint6_linear_2061_2)"/>
<path d="M78.16 34.6H87.32V40H72.48V12H86.92V17.4H78.16V23.2H86.12V28.4H78.16V34.6ZM99.3109 12C105.111 12 108.551 15.52 108.551 21.52C108.551 27.48 105.111 31 99.3109 31H96.8709V40H91.1909V12H99.3109ZM99.2309 25.6C101.511 25.6 102.711 24.2 102.711 21.52C102.711 18.8 101.511 17.4 99.2309 17.4H96.8709V25.6H99.2309ZM111.699 12H117.379V40H111.699V12ZM130.164 40.48C124.724 40.48 121.524 37.32 121.524 31.44V20.56C121.524 14.64 124.724 11.44 130.204 11.44C135.804 11.44 138.924 14.64 139.124 20.56H133.444C133.284 18 132.324 16.96 130.164 16.96C128.444 16.96 127.444 18.08 127.444 20.56V31.44C127.444 33.84 128.404 34.96 130.164 34.96C132.364 34.96 133.364 33.92 133.524 31.44H139.204C139.084 37.32 135.844 40.48 130.164 40.48Z" fill="#518C4B"/>
<path d="M78.86 46.14H73.78V51.52H78.52V52.66H73.78V59H72.54V45H78.86V46.14ZM83.4311 59.24C81.3311 59.24 79.9311 57.9 79.9311 55.44V52.06C79.9311 49.6 81.3311 48.26 83.4311 48.26C85.5311 48.26 86.9311 49.6 86.9311 52.06V55.44C86.9311 57.9 85.5311 59.24 83.4311 59.24ZM83.4311 58.08C84.8511 58.08 85.7311 57.26 85.7311 55.44V52.06C85.7311 50.24 84.8511 49.42 83.4311 49.42C82.0111 49.42 81.1311 50.24 81.1311 52.06V55.44C81.1311 57.26 82.0111 58.08 83.4311 58.08ZM92.5522 59.24C90.4522 59.24 89.0522 57.9 89.0522 55.44V52.06C89.0522 49.6 90.4522 48.26 92.5522 48.26C94.6522 48.26 96.0522 49.6 96.0522 52.06V55.44C96.0522 57.9 94.6522 59.24 92.5522 59.24ZM92.5522 58.08C93.9722 58.08 94.8522 57.26 94.8522 55.44V52.06C94.8522 50.24 93.9722 49.42 92.5522 49.42C91.1322 49.42 90.2522 50.24 90.2522 52.06V55.44C90.2522 57.26 91.1322 58.08 92.5522 58.08ZM103.873 44.52H105.033V59H104.073L103.913 58.02C103.353 58.8 102.453 59.24 101.433 59.24C99.5333 59.24 98.1733 57.88 98.1733 55.22V52.2C98.1733 49.6 99.4133 48.26 101.433 48.26C102.373 48.26 103.293 48.64 103.873 49.44V44.52ZM101.693 58.14C102.893 58.14 103.873 57.22 103.873 55.26V52.2C103.873 50.52 103.013 49.36 101.693 49.36C100.153 49.36 99.3733 50.2 99.3733 52.2V55.22C99.3733 57.28 100.233 58.14 101.693 58.14ZM110.452 59.24C108.372 59.24 106.972 57.9 106.972 55.88H108.152C108.152 57.26 109.012 58.08 110.452 58.08C111.752 58.08 112.512 57.42 112.512 56.3C112.512 53.74 107.112 54.68 107.112 51.08C107.112 49.38 108.372 48.26 110.272 48.26C112.232 48.26 113.532 49.54 113.532 51.48H112.352C112.352 50.18 111.592 49.4 110.272 49.4C109.032 49.4 108.312 50.04 108.312 51.12C108.312 53.58 113.712 52.64 113.712 56.34C113.712 58.08 112.412 59.24 110.452 59.24Z" fill="#FFBF00"/>
<defs>
<linearGradient id="paint0_linear_2061_2" x1="31.3533" y1="39.7242" x2="39.1371" y2="39.7242" gradientUnits="userSpaceOnUse">
<stop stop-color="#51924B"/>
<stop offset="1" stop-color="#41553E"/>
</linearGradient>
<linearGradient id="paint1_linear_2061_2" x1="21.1069" y1="39.6994" x2="28.9328" y2="39.6994" gradientUnits="userSpaceOnUse">
<stop stop-color="#51924B"/>
<stop offset="1" stop-color="#41553E"/>
</linearGradient>
<linearGradient id="paint2_linear_2061_2" x1="30.3603" y1="33.4577" x2="36.9846" y2="33.4577" gradientUnits="userSpaceOnUse">
<stop stop-color="#51924B"/>
<stop offset="1" stop-color="#41553E"/>
</linearGradient>
<linearGradient id="paint3_linear_2061_2" x1="22.479" y1="34.2562" x2="29.2678" y2="34.2562" gradientUnits="userSpaceOnUse">
<stop stop-color="#51924B"/>
<stop offset="1" stop-color="#41553E"/>
</linearGradient>
<linearGradient id="paint4_linear_2061_2" x1="26.5659" y1="40.5071" x2="33.3566" y2="40.5071" gradientUnits="userSpaceOnUse">
<stop stop-color="#51924B"/>
<stop offset="1" stop-color="#41553E"/>
</linearGradient>
<radialGradient id="paint5_radial_2061_2" cx="0" cy="0" r="1" gradientUnits="userSpaceOnUse" gradientTransform="translate(30.2819 31.1886) scale(39.8318 39.8318)">
<stop stop-color="#EFC031"/>
<stop offset="1" stop-color="#BE7E46"/>
</radialGradient>
<linearGradient id="paint6_linear_2061_2" x1="0.706134" y1="51.9818" x2="60.3017" y2="51.9818" gradientUnits="userSpaceOnUse">
<stop stop-color="#51924B"/>
<stop offset="1" stop-color="#41553E"/>
</linearGradient>
</defs>
</svg>
