<svg width="90" height="90" viewBox="0 0 90 90" fill="none" xmlns="http://www.w3.org/2000/svg">
<circle cx="45" cy="45" r="45" fill="#FF0000"/>
<path d="M34.9787 35.2727C34.9787 37.1761 34.6179 38.7955 33.8963 40.1307C33.1804 41.4659 32.2031 42.4858 30.9645 43.1903C29.7315 43.8892 28.3452 44.2386 26.8054 44.2386C25.2543 44.2386 23.8622 43.8864 22.6293 43.1818C21.3963 42.4773 20.4219 41.4574 19.706 40.1222C18.9901 38.7869 18.6321 37.1705 18.6321 35.2727C18.6321 33.3693 18.9901 31.75 19.706 30.4148C20.4219 29.0795 21.3963 28.0625 22.6293 27.3636C23.8622 26.6591 25.2543 26.3068 26.8054 26.3068C28.3452 26.3068 29.7315 26.6591 30.9645 27.3636C32.2031 28.0625 33.1804 29.0795 33.8963 30.4148C34.6179 31.75 34.9787 33.3693 34.9787 35.2727ZM31.2372 35.2727C31.2372 34.0398 31.0526 33 30.6832 32.1534C30.3196 31.3068 29.8054 30.6648 29.1406 30.2273C28.4759 29.7898 27.6974 29.571 26.8054 29.571C25.9134 29.571 25.1349 29.7898 24.4702 30.2273C23.8054 30.6648 23.2884 31.3068 22.919 32.1534C22.5554 33 22.3736 34.0398 22.3736 35.2727C22.3736 36.5057 22.5554 37.5455 22.919 38.392C23.2884 39.2386 23.8054 39.8807 24.4702 40.3182C25.1349 40.7557 25.9134 40.9744 26.8054 40.9744C27.6974 40.9744 28.4759 40.7557 29.1406 40.3182C29.8054 39.8807 30.3196 39.2386 30.6832 38.392C31.0526 37.5455 31.2372 36.5057 31.2372 35.2727ZM52.5504 26.5455V44H48.9027V29.5455H41.8459V44H38.1982V26.5455H52.5504ZM55.3991 29.5881V26.5455H69.7344V29.5881H64.3906V44H60.7429V29.5881H55.3991ZM7.81623 59V52.4545H10.6074C11.4142 52.4545 12.052 52.608 12.5208 52.9148C12.9895 53.2216 13.2239 53.6577 13.2239 54.223C13.2239 54.5781 13.0918 54.8736 12.8276 55.1094C12.5634 55.3452 12.1969 55.5043 11.7282 55.5866C12.1202 55.6151 12.454 55.7045 12.7296 55.8551C13.008 56.0028 13.2196 56.1946 13.3645 56.4304C13.5123 56.6662 13.5861 56.9276 13.5861 57.2145C13.5861 57.5866 13.4867 57.9062 13.2878 58.1733C13.0918 58.4403 12.8034 58.6449 12.4228 58.7869C12.0449 58.929 11.5833 59 11.0378 59H7.81623ZM9.50799 57.6406H11.0378C11.2907 57.6406 11.4881 57.581 11.6301 57.4616C11.775 57.3395 11.8475 57.1733 11.8475 56.9631C11.8475 56.7301 11.775 56.5469 11.6301 56.4134C11.4881 56.2798 11.2907 56.2131 11.0378 56.2131H9.50799V57.6406ZM9.50799 55.1477H10.6458C10.8276 55.1477 10.9824 55.1222 11.1103 55.071C11.2409 55.017 11.3404 54.9403 11.4086 54.8409C11.4796 54.7415 11.5151 54.6236 11.5151 54.4872C11.5151 54.2855 11.4341 54.1278 11.2722 54.0142C11.1103 53.9006 10.8887 53.8438 10.6074 53.8438H9.50799V55.1477ZM14.7303 59V52.4545H16.5456V59H14.7303ZM15.6422 51.6108C15.3723 51.6108 15.1408 51.5213 14.9476 51.3423C14.7573 51.1605 14.6621 50.9432 14.6621 50.6903C14.6621 50.4403 14.7573 50.2259 14.9476 50.0469C15.1408 49.8651 15.3723 49.7741 15.6422 49.7741C15.9121 49.7741 16.1422 49.8651 16.3326 50.0469C16.5257 50.2259 16.6223 50.4403 16.6223 50.6903C16.6223 50.9432 16.5257 51.1605 16.3326 51.3423C16.1422 51.5213 15.9121 51.6108 15.6422 51.6108ZM17.4885 60.9176V57.5597H17.9913C18.1362 57.4687 18.2527 57.3239 18.3407 57.125C18.4316 56.9261 18.5055 56.6918 18.5623 56.4219C18.622 56.152 18.6674 55.8608 18.6987 55.5483C18.7328 55.233 18.7626 54.9148 18.7882 54.5938L18.9586 52.4545H23.9785V57.5597H24.9927V60.9176H23.2626V59H19.2612V60.9176H17.4885ZM19.7981 57.5597H22.2654V53.8523H20.5012L20.4331 54.5938C20.3848 55.2926 20.3152 55.8864 20.2243 56.375C20.1333 56.8608 19.9913 57.2557 19.7981 57.5597ZM31.9984 59.1193C31.3961 59.1193 30.8592 59.0085 30.3876 58.7869C29.9189 58.5653 29.5467 58.2599 29.2711 57.8707C28.9956 57.4815 28.8521 57.0355 28.8407 56.5327H30.6305C30.6504 56.8707 30.7924 57.1449 31.0566 57.3551C31.3208 57.5653 31.6348 57.6705 31.9984 57.6705C32.2882 57.6705 32.5439 57.6065 32.7654 57.4787C32.9899 57.348 33.1646 57.1676 33.2896 56.9375C33.4174 56.7045 33.4814 56.4375 33.4814 56.1364C33.4814 55.8295 33.416 55.5597 33.2853 55.3267C33.1575 55.0937 32.9799 54.9119 32.7527 54.7812C32.5254 54.6506 32.2654 54.5838 31.9728 54.581C31.7172 54.581 31.4686 54.6335 31.2271 54.7386C30.9885 54.8437 30.8024 54.9872 30.6689 55.169L29.0282 54.875L29.4416 50.2727H34.7768V51.7812H30.9629L30.737 53.9673H30.7882C30.9416 53.7514 31.1731 53.5724 31.4828 53.4304C31.7924 53.2884 32.139 53.2173 32.5225 53.2173C33.0481 53.2173 33.5169 53.3409 33.9288 53.5881C34.3407 53.8352 34.666 54.1747 34.9047 54.6065C35.1433 55.0355 35.2612 55.5298 35.2583 56.0895C35.2612 56.6776 35.1248 57.2003 34.8493 57.6577C34.5765 58.1122 34.1944 58.4702 33.7029 58.7315C33.2143 58.9901 32.6461 59.1193 31.9984 59.1193ZM39.9672 59.1918C39.2342 59.1889 38.6035 59.0085 38.0751 58.6506C37.5495 58.2926 37.1447 57.7741 36.8606 57.0952C36.5794 56.4162 36.4402 55.5994 36.443 54.6449C36.443 53.6932 36.5836 52.8821 36.8649 52.2116C37.149 51.5412 37.5538 51.0312 38.0794 50.6818C38.6078 50.3295 39.237 50.1534 39.9672 50.1534C40.6973 50.1534 41.3251 50.3295 41.8507 50.6818C42.3791 51.0341 42.7853 51.5455 43.0694 52.2159C43.3535 52.8835 43.4941 53.6932 43.4913 54.6449C43.4913 55.6023 43.3493 56.4205 43.0652 57.0994C42.7839 57.7784 42.3805 58.2969 41.8549 58.6548C41.3294 59.0128 40.7001 59.1918 39.9672 59.1918ZM39.9672 57.6619C40.4672 57.6619 40.8663 57.4105 41.1646 56.9077C41.4629 56.4048 41.6106 55.6506 41.6078 54.6449C41.6078 53.983 41.5396 53.4318 41.4032 52.9915C41.2697 52.5511 41.0794 52.2202 40.8322 51.9986C40.5879 51.777 40.2995 51.6662 39.9672 51.6662C39.47 51.6662 39.0723 51.9148 38.774 52.4119C38.4757 52.9091 38.3251 53.6534 38.3223 54.6449C38.3223 55.3153 38.389 55.875 38.5225 56.3239C38.6589 56.7699 38.8507 57.1051 39.0978 57.3295C39.345 57.5511 39.6348 57.6619 39.9672 57.6619ZM48.2289 59.1918C47.4959 59.1889 46.8652 59.0085 46.3368 58.6506C45.8113 58.2926 45.4064 57.7741 45.1223 57.0952C44.8411 56.4162 44.7019 55.5994 44.7047 54.6449C44.7047 53.6932 44.8453 52.8821 45.1266 52.2116C45.4107 51.5412 45.8155 51.0312 46.3411 50.6818C46.8695 50.3295 47.4988 50.1534 48.2289 50.1534C48.959 50.1534 49.5868 50.3295 50.1124 50.6818C50.6408 51.0341 51.0471 51.5455 51.3311 52.2159C51.6152 52.8835 51.7559 53.6932 51.753 54.6449C51.753 55.6023 51.611 56.4205 51.3269 57.0994C51.0456 57.7784 50.6422 58.2969 50.1167 58.6548C49.5911 59.0128 48.9618 59.1918 48.2289 59.1918ZM48.2289 57.6619C48.7289 57.6619 49.128 57.4105 49.4263 56.9077C49.7246 56.4048 49.8723 55.6506 49.8695 54.6449C49.8695 53.983 49.8013 53.4318 49.665 52.9915C49.5314 52.5511 49.3411 52.2202 49.0939 51.9986C48.8496 51.777 48.5613 51.6662 48.2289 51.6662C47.7317 51.6662 47.334 51.9148 47.0357 52.4119C46.7374 52.9091 46.5868 53.6534 46.584 54.6449C46.584 55.3153 46.6507 55.875 46.7843 56.3239C46.9206 56.7699 47.1124 57.1051 47.3596 57.3295C47.6067 57.5511 47.8965 57.6619 48.2289 57.6619ZM56.4906 59.1918C55.7576 59.1889 55.127 59.0085 54.5985 58.6506C54.073 58.2926 53.6681 57.7741 53.3841 57.0952C53.1028 56.4162 52.9636 55.5994 52.9664 54.6449C52.9664 53.6932 53.1071 52.8821 53.3883 52.2116C53.6724 51.5412 54.0772 51.0312 54.6028 50.6818C55.1312 50.3295 55.7605 50.1534 56.4906 50.1534C57.2207 50.1534 57.8485 50.3295 58.3741 50.6818C58.9025 51.0341 59.3088 51.5455 59.5929 52.2159C59.877 52.8835 60.0176 53.6932 60.0147 54.6449C60.0147 55.6023 59.8727 56.4205 59.5886 57.0994C59.3074 57.7784 58.9039 58.2969 58.3784 58.6548C57.8528 59.0128 57.2235 59.1918 56.4906 59.1918ZM56.4906 57.6619C56.9906 57.6619 57.3897 57.4105 57.688 56.9077C57.9863 56.4048 58.1341 55.6506 58.1312 54.6449C58.1312 53.983 58.063 53.4318 57.9267 52.9915C57.7931 52.5511 57.6028 52.2202 57.3556 51.9986C57.1113 51.777 56.823 51.6662 56.4906 51.6662C55.9934 51.6662 55.5957 51.9148 55.2974 52.4119C54.9991 52.9091 54.8485 53.6534 54.8457 54.6449C54.8457 55.3153 54.9125 55.875 55.046 56.3239C55.1824 56.7699 55.3741 57.1051 55.6213 57.3295C55.8684 57.5511 56.1582 57.6619 56.4906 57.6619ZM65.8304 52.4545V53.8821H63.1117V59H61.3475V52.4545H65.8304ZM66.9373 61.4545V52.4545H68.7271V53.554H68.8081C68.8876 53.3778 69.0027 53.1989 69.1532 53.017C69.3066 52.8324 69.5055 52.679 69.7498 52.5568C69.997 52.4318 70.3038 52.3693 70.6703 52.3693C71.1475 52.3693 71.5879 52.4943 71.9913 52.7443C72.3947 52.9915 72.7172 53.3651 72.9586 53.8651C73.2001 54.3622 73.3208 54.9858 73.3208 55.7358C73.3208 56.4659 73.2029 57.0824 72.9672 57.5852C72.7342 58.0852 72.416 58.4645 72.0126 58.723C71.612 58.9787 71.1632 59.1065 70.666 59.1065C70.3137 59.1065 70.014 59.0483 69.7669 58.9318C69.5225 58.8153 69.3223 58.669 69.166 58.4929C69.0098 58.3139 68.8904 58.1335 68.8081 57.9517H68.7527V61.4545H66.9373ZM68.7143 55.7273C68.7143 56.1165 68.7683 56.456 68.8762 56.7457C68.9842 57.0355 69.1404 57.2614 69.345 57.4233C69.5495 57.5824 69.7981 57.6619 70.0907 57.6619C70.3862 57.6619 70.6362 57.581 70.8407 57.419C71.0453 57.2543 71.2001 57.027 71.3052 56.7372C71.4132 56.4446 71.4672 56.108 71.4672 55.7273C71.4672 55.3494 71.4146 55.017 71.3095 54.7301C71.2044 54.4432 71.0495 54.2187 70.845 54.0568C70.6404 53.8949 70.389 53.8139 70.0907 53.8139C69.7953 53.8139 69.5453 53.892 69.3407 54.0483C69.139 54.2045 68.9842 54.4261 68.8762 54.7131C68.7683 55 68.7143 55.3381 68.7143 55.7273ZM79.0865 55.0028V56.4304H75.6689V55.0028H79.0865ZM76.2654 52.4545V59H74.5311V52.4545H76.2654ZM80.2243 52.4545V59H78.5027V52.4545H80.2243Z" fill="white"/>
</svg>
